<?xml version="1.0" encoding="UTF-8" standalone="no"?><!DOCTYPE svg PUBLIC "-//W3C//DTD SVG 1.1//EN" "http://www.w3.org/Graphics/SVG/1.1/DTD/svg11.dtd"><svg width="100%" height="100%" viewBox="0 0 208 178" version="1.1" xmlns="http://www.w3.org/2000/svg" xmlns:xlink="http://www.w3.org/1999/xlink" xml:space="preserve" style="fill-rule:evenodd;clip-rule:evenodd;stroke-linejoin:round;stroke-miterlimit:1.41421;"><g><path d="M204.662,56.947c-0.69,-0.318 -17.196,-7.756 -46.897,-7.756c-16.448,0 -25.38,2.532 -33.253,4.792c-6.494,1.851 -12.115,3.441 -20.977,3.441c-8.874,0 -14.483,-1.59 -20.978,-3.441c-7.873,-2.26 -16.804,-4.792 -33.253,-4.792c-29.701,0 -46.207,7.438 -46.897,7.756c-0.885,0.398 -1.471,1.25 -1.54,2.215l-0.862,12.731c-0.069,1.124 0.609,2.192 1.689,2.623c1.138,0.443 2.449,1.318 2.633,1.693c0.149,0.454 0.425,1.862 0.85,3.872c1.345,6.485 3.839,18.569 6.897,26.609c3.529,9.302 7.287,13.299 16.046,17.07c5.23,2.26 13.299,3.657 21.081,3.657c7.597,0 14.678,-1.318 20.46,-3.805c15.069,-6.496 18.678,-16.354 23.264,-28.824c0.667,-1.851 1.253,-3.52 1.77,-5.019c3.196,-9.165 3.794,-10.346 8.84,-10.346c5.046,0 5.655,1.181 8.839,10.346c0.529,1.51 1.103,3.168 1.781,5.008c4.564,12.481 8.161,22.339 23.242,28.835c5.793,2.487 12.874,3.805 20.471,3.805c7.771,0 15.851,-1.397 21.093,-3.657c8.747,-3.771 12.494,-7.768 16.034,-17.07c3.035,-7.995 5.529,-20.044 6.874,-26.506c0.437,-2.056 0.724,-3.498 0.851,-3.919c0.218,-0.431 1.528,-1.306 2.655,-1.749c1.08,-0.431 1.758,-1.499 1.689,-2.623l-0.862,-12.731c-0.069,-0.965 -0.666,-1.817 -1.54,-2.215Zm-126.932,45.133c-4.724,9.801 -14.644,14.775 -29.472,14.775c-11.896,0 -19.195,-2.68 -23.667,-8.677c-4.322,-5.814 -9.552,-30.652 -6.138,-38.329c3.276,-7.337 18.391,-9.96 31.472,-9.96c13.736,0 30.046,2.839 33.38,9.051c3.425,6.371 1.344,18.762 -5.575,33.14Zm104.748,6.087c-4.471,6.008 -11.77,8.688 -23.667,8.688c-14.828,0 -24.747,-4.974 -29.472,-14.775c-6.908,-14.378 -9,-26.757 -5.586,-33.14c3.345,-6.212 19.656,-9.04 33.403,-9.04c13.057,0 28.184,2.612 31.46,9.949c3.414,7.677 -1.816,32.515 -6.138,38.318Z"/><path d="M36.026,37.482l-10.136,0l0,-15.218l-11.719,0l0,15.218l-10.137,0l0,-37.329l10.137,0l0,13.839l11.719,0l0,-13.839l10.136,0l0,37.329Z" style="fill-rule:nonzero;"/><path d="M66.257,37.482l-22.162,0l0,-37.329l22.162,0l0,8.094l-12.077,0l0,5.873l11.183,0l0,8.093l-11.183,0l0,7.047l12.077,0l0,8.222Z" style="fill-rule:nonzero;"/><path d="M95.696,37.482l-1.838,-6.996l-12.128,0l-1.89,6.996l-11.081,0l12.179,-37.482l13.456,0l12.332,37.482l-11.03,0Zm-3.932,-15.269l-1.608,-6.127c-0.375,-1.362 -0.83,-3.124 -1.366,-5.286c-0.537,-2.161 -0.89,-3.71 -1.06,-4.647c-0.153,0.868 -0.455,2.298 -0.906,4.29c-0.452,1.991 -1.452,5.915 -3.001,11.77l7.941,0Z" style="fill-rule:nonzero;"/><path d="M110.76,37.482l0,-37.329l10.086,0l0,29.184l14.375,0l0,8.145l-24.461,0Z" style="fill-rule:nonzero;"/><path d="M156.617,37.482l-10.086,0l0,-29.082l-9.115,0l0,-8.247l28.29,0l0,8.247l-9.089,0l0,29.082Z" style="fill-rule:nonzero;"/><path d="M203.035,37.482l-10.136,0l0,-15.218l-11.72,0l0,15.218l-10.136,0l0,-37.329l10.136,0l0,13.839l11.72,0l0,-13.839l10.136,0l0,37.329Z" style="fill-rule:nonzero;"/><path d="M37.916,147.006c-2.4,0 -4.273,0.983 -5.617,2.949c-1.345,1.966 -2.017,4.676 -2.017,8.132c0,7.183 2.732,10.775 8.196,10.775c1.651,0 3.251,-0.23 4.8,-0.69c1.549,-0.459 3.106,-1.013 4.672,-1.659l0,8.527c-3.115,1.379 -6.638,2.069 -10.57,2.069c-5.634,0 -9.954,-1.634 -12.958,-4.903c-3.004,-3.268 -4.507,-7.991 -4.507,-14.17c0,-3.864 0.728,-7.26 2.183,-10.188c1.456,-2.927 3.549,-5.179 6.281,-6.753c2.732,-1.575 5.945,-2.362 9.639,-2.362c4.034,0 7.89,0.877 11.566,2.63l-3.089,7.941c-1.379,-0.647 -2.758,-1.192 -4.136,-1.634c-1.379,-0.443 -2.86,-0.664 -4.443,-0.664Z" style="fill-rule:nonzero;"/><path d="M87.219,176.598l-10.136,0l0,-15.217l-11.72,0l0,15.217l-10.136,0l0,-37.329l10.136,0l0,13.839l11.72,0l0,-13.839l10.136,0l0,37.329Z" style="fill-rule:nonzero;"/><path d="M117.45,176.598l-22.162,0l0,-37.329l22.162,0l0,8.094l-12.077,0l0,5.873l11.183,0l0,8.093l-11.183,0l0,7.047l12.077,0l0,8.222Z" style="fill-rule:nonzero;"/><path d="M140.608,147.006c-2.4,0 -4.273,0.983 -5.617,2.949c-1.345,1.966 -2.017,4.676 -2.017,8.132c0,7.183 2.732,10.775 8.196,10.775c1.651,0 3.251,-0.23 4.8,-0.69c1.549,-0.459 3.106,-1.013 4.672,-1.659l0,8.527c-3.115,1.379 -6.638,2.069 -10.57,2.069c-5.634,0 -9.954,-1.634 -12.958,-4.903c-3.004,-3.268 -4.507,-7.991 -4.507,-14.17c0,-3.864 0.728,-7.26 2.183,-10.188c1.456,-2.927 3.549,-5.179 6.281,-6.753c2.732,-1.575 5.945,-2.362 9.639,-2.362c4.034,0 7.89,0.877 11.566,2.63l-3.089,7.941c-1.379,-0.647 -2.758,-1.192 -4.136,-1.634c-1.379,-0.443 -2.86,-0.664 -4.443,-0.664Z" style="fill-rule:nonzero;"/><path d="M189.809,176.598l-11.387,0l-7.379,-14.273l-2.988,1.788l0,12.485l-10.136,0l0,-37.329l10.136,0l0,16.214c0.511,-1.005 1.541,-2.596 3.09,-4.775l7.838,-11.439l11.03,0l-11.77,16.724l11.566,20.605Z" style="fill-rule:nonzero;"/></g></svg>